<svg width="600" height="600" viewBox="0 0 600 600" fill="none" xmlns="http://www.w3.org/2000/svg">
<rect width="600" height="600" rx="300" fill="white"/>
<path d="M180.176 154.753L222.676 188.253V221.253L180.176 192.253V154.753Z" fill="#971F21"/>
<path d="M180.176 207.753L222.676 238.253V395.253C224.676 440.753 260.676 454.753 317.676 450.753C390.176 439.253 457.176 393.753 473.176 309.253C486.676 238.753 461.176 165.253 384.176 118.253C326.936 78.4792 222.444 83.653 173.176 125.753C80.1758 192.253 50.6758 345.253 130.176 436.753C175.676 493.753 235.676 516.753 313.676 516.753C378.176 513.753 466.703 478.5 513.676 395.253L558.176 393.5C536.676 449 457.5 548.5 317.676 561C231.965 568.662 160.703 539.253 98.2034 469.753C43.2034 407.753 22.731 296.5 56.231 213C86.231 138 137.676 71.2532 222.676 52.2532C307.676 36.2532 378.176 49.7532 445.676 106.753C501.176 158.753 527.176 226.253 513.676 312.753C494.176 406.253 418.176 479.753 313.676 486.253C251.176 489.253 202.176 473.253 180.176 421.753L180.176 207.753Z" fill="#33327E"/>
<path d="M376.176 231.253V281.753L321.176 313.253V370.253L376.176 341.253V395.253L283.176 439.753V282.753L376.176 231.253Z" fill="#33327E"/>
<path d="M376.676 207.253L271.676 267.753V439.753C255.676 434.253 245.676 428.753 237.176 413.253L235.676 291.753H230.176V242.753L376.676 157.253V207.253Z" fill="#33327E"/>
<path d="M180.176 154.753L222.676 188.253V221.253L180.176 192.253V154.753Z" stroke="black"/>
<path d="M180.176 207.753L222.676 238.253V395.253C224.676 440.753 260.676 454.753 317.676 450.753C390.176 439.253 457.176 393.753 473.176 309.253C486.676 238.753 461.176 165.253 384.176 118.253C326.936 78.4792 222.444 83.653 173.176 125.753C80.1758 192.253 50.6758 345.253 130.176 436.753C175.676 493.753 235.676 516.753 313.676 516.753C378.176 513.753 466.703 478.5 513.676 395.253L558.176 393.5C536.676 449 457.5 548.5 317.676 561C231.965 568.662 160.703 539.253 98.2034 469.753C43.2034 407.753 22.731 296.5 56.231 213C86.231 138 137.676 71.2532 222.676 52.2532C307.676 36.2532 378.176 49.7532 445.676 106.753C501.176 158.753 527.176 226.253 513.676 312.753C494.176 406.253 418.176 479.753 313.676 486.253C251.176 489.253 202.176 473.253 180.176 421.753L180.176 207.753Z" stroke="black"/>
<path d="M376.176 231.253V281.753L321.176 313.253V370.253L376.176 341.253V395.253L283.176 439.753V282.753L376.176 231.253Z" stroke="black"/>
<path d="M376.676 207.253L271.676 267.753V439.753C255.676 434.253 245.676 428.753 237.176 413.253L235.676 291.753H230.176V242.753L376.676 157.253V207.253Z" stroke="black"/>
</svg>
